<?xml version="1.0" encoding="UTF-8" standalone="no"?>
<!-- Created with Inkscape (http://www.inkscape.org/) -->

<svg
   version="1.0"
   width="299.99951"
   height="299.99994"
   id="svg2383"
   xml:space="preserve"
   viewBox="0 0 299.99951 299.99994"
   xmlns="http://www.w3.org/2000/svg"
   xmlns:svg="http://www.w3.org/2000/svg"
   xmlns:rdf="http://www.w3.org/1999/02/22-rdf-syntax-ns#"
   xmlns:cc="http://creativecommons.org/ns#"
   xmlns:dc="http://purl.org/dc/elements/1.1/"><defs
     id="defs2385" /><metadata
     id="metadata2388"><rdf:RDF><cc:Work
         rdf:about=""><dc:format>image/svg+xml</dc:format><dc:type
           rdf:resource="http://purl.org/dc/dcmitype/StillImage" /></cc:Work></rdf:RDF></metadata><path
     id="path164-3"
     d="m 147.92391,0.04787215 c -3.20262,1.06635005 -5.78471,3.69925005 -8.66123,5.51735005 -2.56901,1.88449 -4.78934,3.67092 -7.04207,5.3915598 -15.67246,11.31822 -30.94444,23.06389 -46.724451,34.37856 -18.84906,14.22809 -38.05512,28.09867 -57.01345,42.25212 -6.64652,5.10214 -14.12043,10.19666 -20.8092198,15.629648 -2.6315,2.29417 -6.70528001,3.91287 -7.59895001,7.46269 -0.55527,5.46076 2.13153001,10.45694 3.41694001,15.65727 3.90039,12.55437 7.5811098,25.00648 11.3800998,37.47849 2.49101,9.06175 5.64914,17.89052 8.13684,26.92441 6.22345,19.88217 11.98014,39.86476 18.14314,59.74074 4.09866,13.47494 8.08445,27.10774 11.99462,40.4295 0.96761,3.46921 4.78388,4.68565 8.1002,4.13929 23.42394,-0.0635 46.847851,-0.13218 70.271751,-0.19306 6.06948,-3.79723 10.07998,-9.93049 14.50153,-15.35261 1.61628,-1.65439 2.54984,-4.39107 4.71591,-5.24418 25.66144,-0.17091 51.32032,-0.59274 76.98147,-0.79341 4.24207,-2.6283 4.47993,-8.14477 6.06089,-12.38 7.36839,-24.98904 15.05975,-49.93374 22.6386,-74.82417 2.67387,-7.8912 4.95038,-16.71452 7.50592,-24.83993 3.84087,-12.98856 8.34436,-25.58724 11.58989,-38.80235 0.80524,-2.84193 -0.84602,-5.28758 -3.18693,-6.79185 -12.12784,-9.02826 -24.33959,-17.851158 -36.39327,-27.128168 -9.61621,-7.55482 -20.14124,-14.46032 -29.77831,-22.21769 -10.01227,-7.66146 -20.2947,-14.69792 -30.19414,-22.46373 -7.23839,-5.33738 -14.62075,-11.25037 -22.20166,-16.50985 -2.33321,-1.8674 -5.60489,-1.92704 -7.90549,0.0413 -5.90407,4.3983 -11.61084,9.04406 -17.59845,13.34142 -10.08756,7.32329 -19.55733,14.91811 -29.650431,21.99391 -7.27445,5.26364 -14.32617,10.84226 -21.74734,15.97439 -1.83424,0.5536 -1.43992,6.17303 1.44353,4.8456 33.593051,-0.0163 67.194641,-0.28323 100.782311,-0.1592 7.61548,0.56279 15.71408,1.91952 21.51166,7.18597 8.1862,6.20159 12.81521,16.005268 13.59859,26.013638 1.08805,12.2406 -0.16198,25.46581 -6.97621,36.27028 -1.62464,3.06555 -4.81588,5.26592 -6.18542,8.35316 -0.69901,4.44668 4.27327,6.64671 6.34817,10.01842 8.89708,11.15812 10.01111,26.33334 8.29509,39.90946 -1.44869,10.61616 -6.81335,20.32365 -15.24295,27.17071 -7.1744,6.27201 -17.23253,9.02123 -26.91491,9.12694 -2.9507,0.65862 -4.62289,-0.026 -3.79452,-3.26242 0.0389,-7.59609 -0.20345,-15.3813 0.003,-22.86097 6.39425,-1.29514 12.27776,-5.77339 13.77874,-12.18696 2.23809,-7.78442 1.77751,-16.41612 -1.96492,-23.69255 -3.73465,-6.66906 -11.96554,-9.92236 -19.45049,-9.19 -12.95222,0 -25.90435,0 -38.8565,0 -1.36699,1.59891 -3.73508,2.66093 -2.96422,5.11151 -0.0291,22.08707 0.057,44.22048 -0.0441,66.27857 -7.59896,0 -15.19786,0 -22.796851,0 0,-35.51616 0,-71.03226 0,-106.54843 7.613241,0 15.226461,0 22.839671,0 0.2326,2.75042 -0.45345,5.88916 0.31911,8.41091 1.48594,1.30422 2.50392,3.21206 4.82591,2.50639 13.61583,-0.0563 27.26376,0.11264 40.85953,-0.0836 6.15875,-1.11953 12.19369,-4.72133 14.45802,-10.68713 1.60435,-4.07047 2.31557,-8.56181 2.19159,-12.8906 -0.40819,-5.57348 -2.6233,-11.99762 -8.51952,-14.01232 -5.95045,-2.31171 -12.49622,-0.8577 -18.73085,-1.29472 -41.49455,-0.13152 -82.989231,-0.25654 -124.483851,-0.38229 -2.70244,2.12767 -6.31147,4.19586 -7.21338,7.52472 1.1224,7.37791 4.06802,14.69061 6.16172,22.05664 5.08304,16.60331 10.20065,33.20273 15.27291,49.8248 6.2505,19.88736 12.15087,39.71986 18.27574,59.70506 2.05083,6.36311 3.44228,12.86388 6.0974,19.07212 1.77026,3.42581 6.39541,1.77373 9.55083,2.31298 13.262,0.3765 26.577861,0.11069 39.812251,0.38686 2.19432,1.37756 4.40746,2.69934 7.11999,2.0526 7.1608,-0.33217 11.10704,-9.39109 7.16125,-15.0159 -1.10824,-1.71175 -2.7467,-3.13762 -4.66906,-3.79835 2.07352,-1.24729 2.56238,-3.25174 2.17602,-5.60287 0,-21.63557 3e-5,-43.27116 0,-64.90672 11.98802,0.11394 23.99972,0.0752 35.97293,0.28517 5.90545,1.1409 7.6459,7.65089 7.56828,12.72509 -0.0998,4.15593 -0.12246,10.27708 -5.25459,11.43591 -2.95274,1.25204 -6.81536,-0.17709 -9.33011,1.8661 -1.78703,1.38713 -1.94286,3.29963 -1.69626,5.40998 0,12.26391 0,24.52783 0,36.79178 1.66912,1.36376 2.84176,3.73147 5.37663,2.99347 8.26602,-0.30341 16.72659,0.32585 24.66266,-2.25118 11.68026,-2.96318 21.84777,-10.22203 28.64474,-19.92721 1.25907,-0.84428 1.50097,-2.77031 2.59576,-4.08355 6.79266,-11.85626 7.93109,-25.99431 6.87928,-39.28375 -1.5021,-10.69579 -5.2998,-21.59737 -13.05608,-29.70813 -0.33666,-1.20467 1.74314,-2.46592 2.15891,-3.56361 7.36308,-10.53345 9.49371,-23.61059 9.8791,-36.10252 -0.64855,-13.15137 -3.93124,-27.074718 -13.6915,-36.704398 -6.93141,-6.85292 -16.35158,-11.28585 -26.09659,-12.63579 -14.95449,-1.10261 -29.98243,-0.37126 -44.9702,-0.65491 -12.19325,-0.0739 -24.55758,0.013 -36.64624,-0.24254 6.77697,-5.56224 14.01947,-10.60715 21.04911,-15.83931 6.36197,-4.34501 12.24994,-9.18302 18.23058,-13.78496 2.72944,-1.73695 6.06477,-5.17519 9.45794,-2.85092 7.91103,5.29601 15.20327,11.45166 23.01102,16.90419 16.70152,12.50565 33.56933,24.72307 50.19414,37.27981 10.75388,8.157118 22.02572,15.557498 32.34897,24.098528 2.1455,2.05391 5.91894,3.59432 5.22588,7.10213 -1.36795,6.97689 -4.01802,13.75683 -5.98751,20.62697 -6.15902,20.31728 -12.22853,40.99368 -18.53123,61.69715 -4.75127,15.64799 -9.53579,31.71236 -14.39258,47.59338 -0.60957,2.44694 -1.28516,6.52689 -4.84034,5.65399 -23.33663,0.11557 -46.67335,0.23603 -70.0096,0.41683 -5.5982,2.79525 -8.1483,8.87877 -12.41357,13.11419 -2.3793,2.71435 -4.46866,5.82894 -7.41055,8.04122 -22.45979,0.003 -44.919631,0.003 -67.379421,0.01 -2.72005,-3.5617 -3.03778,-8.15484 -4.54449,-12.20291 -7.49658,-24.57448 -14.82767,-49.19393 -22.27297,-73.79276 -5.39379,-17.78446 -10.74514,-35.65423 -16.28989,-53.3724 -2.55894,-8.72859 -5.7104,-17.2344 -7.74174,-26.10171 -0.55024,-3.40846 3.52127,-4.71847 5.56387,-6.692 20.63204,-14.669968 40.64653,-30.429878 61.28021,-45.362958 11.86969,-8.90321 23.778691,-17.65495 35.587001,-26.62848 11.58744,-8.36068 22.9989,-17.06987 34.40544,-25.68566 3.80836,-1.09736 6.15429,2.75593 9.07246,4.44408 8.87638,6.69363 17.64629,13.29356 26.38644,19.88923 16.17028,12.03053 32.53388,24.20088 48.83187,36.391 13.28024,10.03329 27.01914,19.81621 40.48737,30.057938 5.03161,3.92057 10.33941,7.19491 14.95823,11.59047 0.90815,4.81308 -2.36453,9.09862 -3.31536,13.68433 -5.91809,18.71582 -11.30818,37.662 -17.2197,56.40605 -6.27645,20.60031 -12.45769,41.21993 -18.88166,61.78078 -3.40434,10.94039 -6.42256,21.98226 -10.04577,32.84285 -0.61361,1.77051 -1.9286,3.42594 -4.08122,2.7516 -24.18114,-0.003 -48.36765,0.013 -72.54541,-0.01 -4.74519,-3.26519 -11.81985,-0.78321 -13.75859,4.45247 -2.20634,4.60746 0.33856,11.00244 5.21039,12.68648 2.48242,-0.0853 5.17929,0.52394 7.22031,-1.21584 2.2145,-0.91919 3.46201,-4.36007 6.39953,-3.53216 25.75205,-0.20706 51.51204,-0.0573 77.25729,-0.70225 3.30563,-3.8865 3.42569,-9.34828 5.23673,-13.86247 6.70785,-22.37246 13.47145,-44.62508 20.25014,-66.98594 3.45793,-11.22094 6.79681,-23.00502 10.43197,-34.2943 6.335,-20.55154 12.56114,-41.35676 19.01006,-62.11548 0.65417,-2.33108 0.98777,-5.25541 0.0231,-7.42186 -4.74174,-4.86475 -10.62871,-8.71507 -16.01167,-13.005098 -19.32513,-14.27657 -38.61854,-28.6356 -57.93008,-42.92236 C 207.63395,40.365172 188.997,27.096912 170.97737,13.548492 165.181,9.3754422 159.57997,4.9286122 153.73901,0.82955215 c -1.67552,-1.301 -3.8515,-0.64722 -5.82394,-0.78093 z M 170.01822,123.83588 c 3.44305,1.48859 2.22658,5.96577 2.38114,8.88574 -0.17462,4.06559 -2.39883,8.82 -7.12044,9.04984 -11.57344,0 -23.14682,0 -34.72029,0 0,-2.87609 0,-5.75213 0,-8.62822 -2.35413,0.30927 -3.50086,-3.14964 -6.06893,-2.38971 -10.35827,0.11687 -20.74517,-0.23049 -31.086201,0.16766 -2.41772,0.0573 -4.63883,1.03655 -5.73133,3.21983 -1.36125,2.07149 -0.19761,5.079 -0.58516,7.51133 -0.0195,37.10984 -0.034,74.21973 -0.0486,111.32961 1.13,3.52298 4.88639,5.7289 8.58752,4.93878 8.683421,0.0569 18.349801,-0.11297 26.425821,0.0836 -2.47214,0.99275 -3.87992,4.06212 -6.90153,3.33662 -12.59596,-0.071 -25.291381,0.12306 -37.826831,-0.2256 -3.16089,-4.95898 -3.43075,-10.97129 -5.31403,-16.41298 -4.08693,-13.94484 -8.29982,-27.99932 -12.53885,-41.70086 -4.58592,-14.95281 -8.78854,-30.06673 -13.47662,-44.79559 -2.96518,-9.61475 -5.61677,-19.13139 -8.74691,-28.84445 -0.59784,-1.90721 -1.56632,-3.57283 -1.86763,-5.55928 44.67118,-0.0954 89.342561,-0.15138 134.013671,-0.28518 l 0.38922,0.19826 z"
     style="stroke-width:4.33948" /></svg>
