<svg width="1920" height="1080" version="1.0" viewBox="0 0 1920 1080" xml:space="preserve" xmlns="http://www.w3.org/2000/svg" xmlns:xlink="http://www.w3.org/1999/xlink"><path d="m825.96 225.37c-3.2026 1.0664-5.7847 3.6992-8.6612 5.5174-2.569 1.8845-4.7893 3.6709-7.0421 5.3916-15.672 11.318-30.944 23.064-46.724 34.379-18.849 14.228-38.055 28.099-57.013 42.252-6.6465 5.1021-14.12 10.197-20.809 15.63-2.6315 2.2942-6.7053 3.9129-7.599 7.4627-.55527 5.4608 2.1315 10.457 3.4169 15.657 3.9004 12.554 7.5811 25.006 11.38 37.478 2.491 9.0618 5.6491 17.891 8.1368 26.924 6.2234 19.882 11.98 39.865 18.143 59.741 4.0987 13.475 8.0844 27.108 11.995 40.43.96761 3.4692 4.7839 4.6856 8.1002 4.1393 23.424-.0635 46.848-.13218 70.272-.19306 6.0695-3.7972 10.08-9.9305 14.502-15.353 1.6163-1.6544 2.5498-4.3911 4.7159-5.2442 25.661-.17091 51.32-.59274 76.981-.79341 4.2421-2.6283 4.4799-8.1448 6.0609-12.38 7.3684-24.989 15.06-49.934 22.639-74.824 2.6739-7.8912 4.9504-16.715 7.5059-24.84 3.8409-12.989 8.3444-25.587 11.59-38.802.80524-2.8419-.84602-5.2876-3.1869-6.7918-12.128-9.0283-24.34-17.851-36.393-27.128-9.6162-7.5548-20.141-14.46-29.778-22.218-10.012-7.6615-20.295-14.698-30.194-22.464-7.2384-5.3374-14.621-11.25-22.202-16.51-2.3332-1.8674-5.6049-1.927-7.9055.0413-5.9041 4.3983-11.611 9.0441-17.598 13.341-10.088 7.3233-19.557 14.918-29.65 21.994-7.2744 5.2636-14.326 10.842-21.747 15.974-1.8342.5536-1.4399 6.173 1.4435 4.8456 33.593-.0163 67.195-.28323 100.78-.1592 7.6155.56279 15.714 1.9195 21.512 7.186 8.1862 6.2016 12.815 16.005 13.599 26.014 1.088 12.241-.16198 25.466-6.9762 36.27-1.6246 3.0656-4.8159 5.2659-6.1854 8.3532-.69901 4.4467 4.2733 6.6467 6.3482 10.018 8.8971 11.158 10.011 26.333 8.2951 39.909-1.4487 10.616-6.8134 20.324-15.243 27.171-7.1744 6.272-17.233 9.0212-26.915 9.1269-2.9507.65862-4.6229-.026-3.7945-3.2624.0389-7.5961-.20345-15.381.003-22.861 6.3942-1.2951 12.278-5.7734 13.779-12.187 2.2381-7.7844 1.7775-16.416-1.9649-23.693-3.7346-6.6691-11.966-9.9224-19.45-9.19h-38.856c-1.367 1.5989-3.7351 2.6609-2.9642 5.1115-.0291 22.087.057 44.22-.0441 66.279h-22.797v-106.55h22.84c.2326 2.7504-.45345 5.8892.31911 8.4109 1.4859 1.3042 2.5039 3.2121 4.8259 2.5064 13.616-.0563 27.264.11264 40.86-.0836 6.1588-1.1195 12.194-4.7213 14.458-10.687 1.6044-4.0705 2.3156-8.5618 2.1916-12.891-.40819-5.5735-2.6233-11.998-8.5195-14.012-5.9504-2.3117-12.496-.8577-18.731-1.2947-41.495-.13152-82.989-.25654-124.48-.38229-2.7024 2.1277-6.3115 4.1959-7.2134 7.5247 1.1224 7.3779 4.068 14.691 6.1617 22.057 5.083 16.603 10.201 33.203 15.273 49.825 6.2505 19.887 12.151 39.72 18.276 59.705 2.0508 6.3631 3.4423 12.864 6.0974 19.072 1.7703 3.4258 6.3954 1.7737 9.5508 2.313 13.262.3765 26.578.11069 39.812.38686 2.1943 1.3776 4.4075 2.6993 7.12 2.0526 7.1608-.33217 11.107-9.3911 7.1612-15.016-1.1082-1.7118-2.7467-3.1376-4.6691-3.7984 2.0735-1.2473 2.5624-3.2517 2.176-5.6029 0-21.636 3e-5-43.271 0-64.907 11.988.11394 24 .0752 35.973.28517 5.9054 1.1409 7.6459 7.6509 7.5683 12.725-.0998 4.1559-.12246 10.277-5.2546 11.436-2.9527 1.252-6.8154-.17709-9.3301 1.8661-1.787 1.3871-1.9429 3.2996-1.6963 5.41v36.792c1.6691 1.3638 2.8418 3.7315 5.3766 2.9935 8.266-.30341 16.727.32585 24.663-2.2512 11.68-2.9632 21.848-10.222 28.645-19.927 1.2591-.84428 1.501-2.7703 2.5958-4.0836 6.7927-11.856 7.9311-25.994 6.8793-39.284-1.5021-10.696-5.2998-21.597-13.056-29.708-.33666-1.2047 1.7431-2.4659 2.1589-3.5636 7.3631-10.533 9.4937-23.611 9.8791-36.103-.64855-13.151-3.9312-27.075-13.692-36.704-6.9314-6.8529-16.352-11.286-26.097-12.636-14.954-1.1026-29.982-.37126-44.97-.65491-12.193-.0739-24.558.013-36.646-.24254 6.777-5.5622 14.019-10.607 21.049-15.839 6.362-4.345 12.25-9.183 18.231-13.785 2.7294-1.737 6.0648-5.1752 9.4579-2.8509 7.911 5.296 15.203 11.452 23.011 16.904 16.702 12.506 33.569 24.723 50.194 37.28 10.754 8.1571 22.026 15.558 32.349 24.099 2.1455 2.0539 5.9189 3.5943 5.2259 7.1021-1.368 6.9769-4.018 13.757-5.9875 20.627-6.159 20.317-12.229 40.994-18.531 61.697-4.7513 15.648-9.5358 31.712-14.393 47.593-.60957 2.4469-1.2852 6.5269-4.8403 5.654-23.337.11557-46.673.23603-70.01.41683-5.5982 2.7952-8.1483 8.8788-12.414 13.114-2.3793 2.7144-4.4687 5.8289-7.4106 8.0412-22.46.003-44.92.003-67.379.01-2.72-3.5617-3.0378-8.1548-4.5445-12.203-7.4966-24.574-14.828-49.194-22.273-73.793-5.3938-17.784-10.745-35.654-16.29-53.372-2.5589-8.7286-5.7104-17.234-7.7417-26.102-.55024-3.4085 3.5213-4.7185 5.5639-6.692 20.632-14.67 40.647-30.43 61.28-45.363 11.87-8.9032 23.779-17.655 35.587-26.628 11.587-8.3607 22.999-17.07 34.405-25.686 3.8084-1.0974 6.1543 2.7559 9.0725 4.4441 8.8764 6.6936 17.646 13.294 26.386 19.889 16.17 12.031 32.534 24.201 48.832 36.391 13.28 10.033 27.019 19.816 40.487 30.058 5.0316 3.9206 10.339 7.1949 14.958 11.59.90815 4.8131-2.3645 9.0986-3.3154 13.684-5.9181 18.716-11.308 37.662-17.22 56.406-6.2764 20.6-12.458 41.22-18.882 61.781-3.4043 10.94-6.4226 21.982-10.046 32.843-.61361 1.7705-1.9286 3.4259-4.0812 2.7516-24.181-.003-48.368.013-72.545-.01-4.7452-3.2652-11.82-.78321-13.759 4.4525-2.2063 4.6075.33856 11.002 5.2104 12.686 2.4824-.0853 5.1793.52394 7.2203-1.2158 2.2145-.91919 3.462-4.3601 6.3995-3.5322 25.752-.20706 51.512-.0573 77.257-.70225 3.3056-3.8865 3.4257-9.3483 5.2367-13.862 6.7078-22.372 13.471-44.625 20.25-66.986 3.4579-11.221 6.7968-23.005 10.432-34.294 6.335-20.552 12.561-41.357 19.01-62.115.65417-2.3311.98777-5.2554.0231-7.4219-4.7417-4.8648-10.629-8.7151-16.012-13.005-19.325-14.277-38.619-28.636-57.93-42.922-17.821-13.54-36.458-26.809-54.478-40.357-5.7964-4.173-11.397-8.6199-17.238-12.719-1.6755-1.301-3.8515-.64722-5.8239-.78093zm22.094 123.79c3.443 1.4886 2.2266 5.9658 2.3811 8.8857-.17462 4.0656-2.3988 8.82-7.1204 9.0498h-34.72v-8.6282c-2.3541.30927-3.5009-3.1496-6.0689-2.3897-10.358.11687-20.745-.23049-31.086.16766-2.4177.0573-4.6388 1.0366-5.7313 3.2198-1.3612 2.0715-.19761 5.079-.58516 7.5113-.0195 37.11-.034 74.22-.0486 111.33 1.13 3.523 4.8864 5.7289 8.5875 4.9388 8.6834.0569 18.35-.11297 26.426.0836-2.4721.99275-3.8799 4.0621-6.9015 3.3366-12.596-.071-25.291.12306-37.827-.2256-3.1609-4.959-3.4308-10.971-5.314-16.413-4.0869-13.945-8.2998-27.999-12.539-41.701-4.5859-14.953-8.7885-30.067-13.477-44.796-2.9652-9.6148-5.6168-19.131-8.7469-28.844-.59784-1.9072-1.5663-3.5728-1.8676-5.5593 44.671-.0954 89.343-.15138 134.01-.28518l.38922.19826z" stroke-width="4.3395"/></svg>
